<?xml version="1.0" encoding="UTF-8"?>
<svg width="48px" height="40px" viewBox="0 0 48 40" version="1.1" xmlns="http://www.w3.org/2000/svg" xmlns:xlink="http://www.w3.org/1999/xlink">
    <title>email-app</title>
    <g id="Symbols" stroke="none" stroke-width="1" fill="none" fill-rule="evenodd">
        <g id="Contact-for-Left-Nav" transform="translate(-873.000000, -112.000000)" fill="#000000" fill-rule="nonzero">
            <g id="email-app" transform="translate(873.000000, 112.000000)">
                <path d="M31.7264,24.1968 C31.3952,23.9056 30.8912,23.9392 30.5984,24.272 C30.3072,24.6048 30.3408,25.1104 30.6736,25.4016 L43.4736,36.6016 C43.6256,36.7344 43.8128,36.8 44,36.8 C44.2224,36.8 44.4432,36.7072 44.6016,36.5264 C44.8928,36.1936 44.8592,35.688 44.5264,35.3968 L31.7264,24.1968 Z M4,36.8 C4.1872,36.8 4.3744,36.7344 4.5264,36.6016 L17.3264,25.4016 C17.6592,25.1088 17.6944,24.6048 17.4016,24.272 C17.1088,23.9392 16.6032,23.9056 16.2736,24.1968 L3.4736,35.3968 C3.1408,35.6896 3.1056,36.1936 3.3984,36.5264 C3.5568,36.7088 3.7776,36.8 4,36.8 Z M20.7536,24.6608 C21.6656,25.2848 22.7344,25.5968 23.8032,25.5968 C24.8704,25.5968 25.9392,25.2848 26.8496,24.664 L44.4496,12.664 C44.816,12.4144 44.9088,11.9168 44.6608,11.552 C44.4128,11.1872 43.9136,11.0976 43.5504,11.3424 L25.9488,23.3424 C24.6672,24.2192 22.9408,24.2208 21.6624,23.3456 L4.4576,11.3456 C4.1008,11.0944 3.5984,11.1792 3.344,11.544 C3.0912,11.9056 3.1792,12.4048 3.5424,12.6576 L20.7536,24.6608 Z M10.4,3.2 C9.9584,3.2 9.6,3.5584 9.6,4 C9.6,4.4416 9.9584,4.8 10.4,4.8 C10.8416,4.8 11.2,4.4432 11.2,4 C11.2,3.5568 10.8416,3.2 10.4,3.2 Z M43.1664,0 L4.8352,0 C2.1696,0 0.0016,2 0.0016,4.4576 L0.0016,7.1936 C0.0016,7.1952 0,7.1984 0,7.2 C0,7.2016 0.0016,7.2048 0.0016,7.208 L0.0016,35.5424 C0.0016,38 2.1696,40 4.8352,40 L43.1664,40 C45.832,40 48,38 48,35.5424 L48,4.456 C48,2 45.832,0 43.1664,0 Z M46.3984,35.544 C46.3984,37.12 44.9472,38.4016 43.1648,38.4016 L4.8336,38.4016 C3.0512,38.4016 1.6,37.1184 1.6,35.544 L1.6,8 L46.3984,8 L46.3984,35.544 Z M46.3984,6.4 L1.6,6.4 L1.6,4.4576 C1.6,2.8816 3.0512,1.6 4.8336,1.6 L43.1648,1.6 C44.9472,1.6 46.3984,2.8832 46.3984,4.4576 L46.3984,6.4 Z M15.2,3.2 C14.7584,3.2 14.4,3.5584 14.4,4 C14.4,4.4416 14.7584,4.8 15.2,4.8 C15.6416,4.8 16,4.4432 16,4 C16,3.5568 15.6416,3.2 15.2,3.2 Z M5.6,3.2 C5.1584,3.2 4.8,3.5584 4.8,4 C4.8,4.4416 5.1584,4.8 5.6,4.8 C6.0416,4.8 6.4,4.4432 6.4,4 C6.4,3.5568 6.0416,3.2 5.6,3.2 Z" id="Shape"></path>
            </g>
        </g>
    </g>
</svg>